<mxfile host="app.diagrams.net" modified="2023-11-28T20:06:32.361Z" agent="Mozilla/5.0 (Macintosh; Intel Mac OS X 10_15_7) AppleWebKit/537.36 (KHTML, like Gecko) Chrome/119.0.0.0 Safari/537.36" etag="yi677XzeTz_24gSesTla" version="22.1.4" type="device">
  <diagram name="Page-1" id="1twaOeLCPMnBx_ymml-E">
    <mxGraphModel dx="2391" dy="1413" grid="1" gridSize="10" guides="1" tooltips="1" connect="1" arrows="1" fold="1" page="1" pageScale="1" pageWidth="850" pageHeight="1100" math="0" shadow="0">
      <root>
        <mxCell id="0" />
        <mxCell id="1" parent="0" />
        <mxCell id="UBIV_g0USAln2EM_5RJJ-1" value="AWS Cloud" style="points=[[0,0],[0.25,0],[0.5,0],[0.75,0],[1,0],[1,0.25],[1,0.5],[1,0.75],[1,1],[0.75,1],[0.5,1],[0.25,1],[0,1],[0,0.75],[0,0.5],[0,0.25]];outlineConnect=0;gradientColor=none;html=1;whiteSpace=wrap;fontSize=12;fontStyle=0;container=1;pointerEvents=0;collapsible=0;recursiveResize=0;shape=mxgraph.aws4.group;grIcon=mxgraph.aws4.group_aws_cloud_alt;strokeColor=#232F3E;fillColor=none;verticalAlign=top;align=left;spacingLeft=30;fontColor=#232F3E;dashed=0;" parent="1" vertex="1">
          <mxGeometry x="40" y="40" width="1600" height="1130" as="geometry" />
        </mxCell>
        <mxCell id="UBIV_g0USAln2EM_5RJJ-11" value="" style="sketch=0;outlineConnect=0;fontColor=#232F3E;gradientColor=none;fillColor=#8C4FFF;strokeColor=none;dashed=0;verticalLabelPosition=bottom;verticalAlign=top;align=center;html=1;fontSize=12;fontStyle=0;aspect=fixed;pointerEvents=1;shape=mxgraph.aws4.internet_gateway;" parent="UBIV_g0USAln2EM_5RJJ-1" vertex="1">
          <mxGeometry x="775" y="1070" width="60" height="60" as="geometry" />
        </mxCell>
        <mxCell id="UBIV_g0USAln2EM_5RJJ-75" value="" style="sketch=0;points=[[0,0,0],[0.25,0,0],[0.5,0,0],[0.75,0,0],[1,0,0],[0,1,0],[0.25,1,0],[0.5,1,0],[0.75,1,0],[1,1,0],[0,0.25,0],[0,0.5,0],[0,0.75,0],[1,0.25,0],[1,0.5,0],[1,0.75,0]];outlineConnect=0;fontColor=#232F3E;fillColor=#7AA116;strokeColor=#ffffff;dashed=0;verticalLabelPosition=bottom;verticalAlign=top;align=center;html=1;fontSize=12;fontStyle=0;aspect=fixed;shape=mxgraph.aws4.resourceIcon;resIcon=mxgraph.aws4.s3;" parent="UBIV_g0USAln2EM_5RJJ-1" vertex="1">
          <mxGeometry x="760" y="-19" width="70" height="70" as="geometry" />
        </mxCell>
        <mxCell id="UBIV_g0USAln2EM_5RJJ-2" value="us-east-1" style="points=[[0,0],[0.25,0],[0.5,0],[0.75,0],[1,0],[1,0.25],[1,0.5],[1,0.75],[1,1],[0.75,1],[0.5,1],[0.25,1],[0,1],[0,0.75],[0,0.5],[0,0.25]];outlineConnect=0;gradientColor=none;html=1;whiteSpace=wrap;fontSize=12;fontStyle=0;container=1;pointerEvents=0;collapsible=0;recursiveResize=0;shape=mxgraph.aws4.group;grIcon=mxgraph.aws4.group_region;strokeColor=#00A4A6;fillColor=none;verticalAlign=top;align=left;spacingLeft=30;fontColor=#147EBA;dashed=1;" parent="1" vertex="1">
          <mxGeometry x="70" y="60" width="1550" height="1090" as="geometry" />
        </mxCell>
        <mxCell id="UBIV_g0USAln2EM_5RJJ-31" value="" style="sketch=0;outlineConnect=0;fontColor=#232F3E;gradientColor=none;fillColor=#8C4FFF;strokeColor=none;dashed=0;verticalLabelPosition=bottom;verticalAlign=top;align=center;html=1;fontSize=12;fontStyle=0;aspect=fixed;pointerEvents=1;shape=mxgraph.aws4.route_table;" parent="UBIV_g0USAln2EM_5RJJ-2" vertex="1">
          <mxGeometry x="935.24" y="840" width="59.53" height="58" as="geometry" />
        </mxCell>
        <mxCell id="UBIV_g0USAln2EM_5RJJ-55" value="" style="sketch=0;outlineConnect=0;fontColor=#232F3E;gradientColor=none;fillColor=#8C4FFF;strokeColor=none;dashed=0;verticalLabelPosition=bottom;verticalAlign=top;align=center;html=1;fontSize=12;fontStyle=0;aspect=fixed;pointerEvents=1;shape=mxgraph.aws4.route_table;" parent="UBIV_g0USAln2EM_5RJJ-2" vertex="1">
          <mxGeometry x="1260" y="840" width="59.53" height="58" as="geometry" />
        </mxCell>
        <mxCell id="UBIV_g0USAln2EM_5RJJ-49" value="" style="sketch=0;outlineConnect=0;fontColor=#232F3E;gradientColor=none;fillColor=#8C4FFF;strokeColor=none;dashed=0;verticalLabelPosition=bottom;verticalAlign=top;align=center;html=1;fontSize=12;fontStyle=0;aspect=fixed;pointerEvents=1;shape=mxgraph.aws4.route_table;" parent="UBIV_g0USAln2EM_5RJJ-2" vertex="1">
          <mxGeometry x="530" y="840" width="59.53" height="58" as="geometry" />
        </mxCell>
        <mxCell id="UBIV_g0USAln2EM_5RJJ-53" value="" style="sketch=0;outlineConnect=0;fontColor=#232F3E;gradientColor=none;fillColor=#8C4FFF;strokeColor=none;dashed=0;verticalLabelPosition=bottom;verticalAlign=top;align=center;html=1;fontSize=12;fontStyle=0;aspect=fixed;pointerEvents=1;shape=mxgraph.aws4.route_table;" parent="UBIV_g0USAln2EM_5RJJ-2" vertex="1">
          <mxGeometry x="210" y="840" width="59.53" height="58" as="geometry" />
        </mxCell>
        <mxCell id="UBIV_g0USAln2EM_5RJJ-3" value="VPC" style="points=[[0,0],[0.25,0],[0.5,0],[0.75,0],[1,0],[1,0.25],[1,0.5],[1,0.75],[1,1],[0.75,1],[0.5,1],[0.25,1],[0,1],[0,0.75],[0,0.5],[0,0.25]];outlineConnect=0;gradientColor=none;html=1;whiteSpace=wrap;fontSize=12;fontStyle=0;container=1;pointerEvents=0;collapsible=0;recursiveResize=0;shape=mxgraph.aws4.group;grIcon=mxgraph.aws4.group_vpc2;strokeColor=#8C4FFF;fillColor=none;verticalAlign=top;align=left;spacingLeft=30;fontColor=#AAB7B8;dashed=0;" parent="1" vertex="1">
          <mxGeometry x="100" y="80" width="1500" height="1050" as="geometry" />
        </mxCell>
        <mxCell id="UBIV_g0USAln2EM_5RJJ-4" value="us-east-1a" style="fillColor=none;strokeColor=#147EBA;dashed=1;verticalAlign=top;fontStyle=0;fontColor=#147EBA;whiteSpace=wrap;html=1;" parent="UBIV_g0USAln2EM_5RJJ-3" vertex="1">
          <mxGeometry x="40" y="40" width="640" height="720" as="geometry" />
        </mxCell>
        <mxCell id="UBIV_g0USAln2EM_5RJJ-5" value="us-east-1b" style="fillColor=none;strokeColor=#147EBA;dashed=1;verticalAlign=top;fontStyle=0;fontColor=#147EBA;whiteSpace=wrap;html=1;" parent="UBIV_g0USAln2EM_5RJJ-3" vertex="1">
          <mxGeometry x="760" y="40" width="640" height="720" as="geometry" />
        </mxCell>
        <mxCell id="UBIV_g0USAln2EM_5RJJ-6" value="Private subnet" style="points=[[0,0],[0.25,0],[0.5,0],[0.75,0],[1,0],[1,0.25],[1,0.5],[1,0.75],[1,1],[0.75,1],[0.5,1],[0.25,1],[0,1],[0,0.75],[0,0.5],[0,0.25]];outlineConnect=0;gradientColor=none;html=1;whiteSpace=wrap;fontSize=12;fontStyle=0;container=1;pointerEvents=0;collapsible=0;recursiveResize=0;shape=mxgraph.aws4.group;grIcon=mxgraph.aws4.group_security_group;grStroke=0;strokeColor=#00A4A6;fillColor=#E6F6F7;verticalAlign=top;align=left;spacingLeft=30;fontColor=#147EBA;dashed=0;" parent="UBIV_g0USAln2EM_5RJJ-3" vertex="1">
          <mxGeometry x="780" y="70" width="290" height="680" as="geometry" />
        </mxCell>
        <mxCell id="UBIV_g0USAln2EM_5RJJ-7" value="Private subnet" style="points=[[0,0],[0.25,0],[0.5,0],[0.75,0],[1,0],[1,0.25],[1,0.5],[1,0.75],[1,1],[0.75,1],[0.5,1],[0.25,1],[0,1],[0,0.75],[0,0.5],[0,0.25]];outlineConnect=0;gradientColor=none;html=1;whiteSpace=wrap;fontSize=12;fontStyle=0;container=1;pointerEvents=0;collapsible=0;recursiveResize=0;shape=mxgraph.aws4.group;grIcon=mxgraph.aws4.group_security_group;grStroke=0;strokeColor=#00A4A6;fillColor=#E6F6F7;verticalAlign=top;align=left;spacingLeft=30;fontColor=#147EBA;dashed=0;" parent="UBIV_g0USAln2EM_5RJJ-3" vertex="1">
          <mxGeometry x="370" y="70" width="290" height="676" as="geometry" />
        </mxCell>
        <mxCell id="UBIV_g0USAln2EM_5RJJ-22" value="" style="sketch=0;points=[[0,0,0],[0.25,0,0],[0.5,0,0],[0.75,0,0],[1,0,0],[0,1,0],[0.25,1,0],[0.5,1,0],[0.75,1,0],[1,1,0],[0,0.25,0],[0,0.5,0],[0,0.75,0],[1,0.25,0],[1,0.5,0],[1,0.75,0]];outlineConnect=0;fontColor=#232F3E;fillColor=#ED7100;strokeColor=#ffffff;dashed=0;verticalLabelPosition=bottom;verticalAlign=top;align=center;html=1;fontSize=12;fontStyle=0;aspect=fixed;shape=mxgraph.aws4.resourceIcon;resIcon=mxgraph.aws4.ec2;" parent="UBIV_g0USAln2EM_5RJJ-7" vertex="1">
          <mxGeometry x="75" y="75" width="140" height="140" as="geometry" />
        </mxCell>
        <mxCell id="UBIV_g0USAln2EM_5RJJ-9" value="Public subnet" style="points=[[0,0],[0.25,0],[0.5,0],[0.75,0],[1,0],[1,0.25],[1,0.5],[1,0.75],[1,1],[0.75,1],[0.5,1],[0.25,1],[0,1],[0,0.75],[0,0.5],[0,0.25]];outlineConnect=0;gradientColor=none;html=1;whiteSpace=wrap;fontSize=12;fontStyle=0;container=1;pointerEvents=0;collapsible=0;recursiveResize=0;shape=mxgraph.aws4.group;grIcon=mxgraph.aws4.group_security_group;grStroke=0;strokeColor=#7AA116;fillColor=#F2F6E8;verticalAlign=top;align=left;spacingLeft=30;fontColor=#248814;dashed=0;" parent="UBIV_g0USAln2EM_5RJJ-3" vertex="1">
          <mxGeometry x="1090" y="70" width="290" height="680" as="geometry" />
        </mxCell>
        <mxCell id="UBIV_g0USAln2EM_5RJJ-16" value="" style="sketch=0;outlineConnect=0;fontColor=#232F3E;gradientColor=none;fillColor=#8C4FFF;strokeColor=none;dashed=0;verticalLabelPosition=bottom;verticalAlign=top;align=center;html=1;fontSize=12;fontStyle=0;aspect=fixed;pointerEvents=1;shape=mxgraph.aws4.nat_gateway;" parent="UBIV_g0USAln2EM_5RJJ-9" vertex="1">
          <mxGeometry x="79.76" y="79" width="140" height="140" as="geometry" />
        </mxCell>
        <mxCell id="UBIV_g0USAln2EM_5RJJ-19" style="edgeStyle=orthogonalEdgeStyle;rounded=0;orthogonalLoop=1;jettySize=auto;html=1;exitX=0.5;exitY=1;exitDx=0;exitDy=0;exitPerimeter=0;" parent="UBIV_g0USAln2EM_5RJJ-3" edge="1">
          <mxGeometry relative="1" as="geometry">
            <mxPoint x="930" y="290.00000000000045" as="sourcePoint" />
            <mxPoint x="930" y="290.00000000000045" as="targetPoint" />
          </mxGeometry>
        </mxCell>
        <mxCell id="UBIV_g0USAln2EM_5RJJ-21" value="" style="sketch=0;points=[[0,0,0],[0.25,0,0],[0.5,0,0],[0.75,0,0],[1,0,0],[0,1,0],[0.25,1,0],[0.5,1,0],[0.75,1,0],[1,1,0],[0,0.25,0],[0,0.5,0],[0,0.75,0],[1,0.25,0],[1,0.5,0],[1,0.75,0]];outlineConnect=0;fontColor=#232F3E;fillColor=#ED7100;strokeColor=#ffffff;dashed=0;verticalLabelPosition=bottom;verticalAlign=top;align=center;html=1;fontSize=12;fontStyle=0;aspect=fixed;shape=mxgraph.aws4.resourceIcon;resIcon=mxgraph.aws4.ec2;" parent="UBIV_g0USAln2EM_5RJJ-3" vertex="1">
          <mxGeometry x="855" y="150" width="140" height="140" as="geometry" />
        </mxCell>
        <mxCell id="UBIV_g0USAln2EM_5RJJ-8" value="Public subnet" style="points=[[0,0],[0.25,0],[0.5,0],[0.75,0],[1,0],[1,0.25],[1,0.5],[1,0.75],[1,1],[0.75,1],[0.5,1],[0.25,1],[0,1],[0,0.75],[0,0.5],[0,0.25]];outlineConnect=0;gradientColor=none;html=1;whiteSpace=wrap;fontSize=12;fontStyle=0;container=1;pointerEvents=0;collapsible=0;recursiveResize=0;shape=mxgraph.aws4.group;grIcon=mxgraph.aws4.group_security_group;grStroke=0;strokeColor=#7AA116;fillColor=#F2F6E8;verticalAlign=top;align=left;spacingLeft=30;fontColor=#248814;dashed=0;" parent="UBIV_g0USAln2EM_5RJJ-3" vertex="1">
          <mxGeometry x="60" y="70" width="290" height="680" as="geometry" />
        </mxCell>
        <mxCell id="UBIV_g0USAln2EM_5RJJ-17" value="" style="sketch=0;outlineConnect=0;fontColor=#232F3E;gradientColor=none;fillColor=#8C4FFF;strokeColor=none;dashed=0;verticalLabelPosition=bottom;verticalAlign=top;align=center;html=1;fontSize=12;fontStyle=0;aspect=fixed;pointerEvents=1;shape=mxgraph.aws4.nat_gateway;" parent="UBIV_g0USAln2EM_5RJJ-8" vertex="1">
          <mxGeometry x="70" y="79" width="140" height="140" as="geometry" />
        </mxCell>
        <mxCell id="UBIV_g0USAln2EM_5RJJ-23" value="Auto Scaling group" style="points=[[0,0],[0.25,0],[0.5,0],[0.75,0],[1,0],[1,0.25],[1,0.5],[1,0.75],[1,1],[0.75,1],[0.5,1],[0.25,1],[0,1],[0,0.75],[0,0.5],[0,0.25]];outlineConnect=0;gradientColor=none;html=1;whiteSpace=wrap;fontSize=12;fontStyle=0;container=1;pointerEvents=0;collapsible=0;recursiveResize=0;shape=mxgraph.aws4.groupCenter;grIcon=mxgraph.aws4.group_auto_scaling_group;grStroke=1;strokeColor=#D86613;fillColor=none;verticalAlign=top;align=center;fontColor=#D86613;dashed=1;spacingTop=25;" parent="UBIV_g0USAln2EM_5RJJ-3" vertex="1">
          <mxGeometry x="370" y="40" width="680" height="290" as="geometry" />
        </mxCell>
        <mxCell id="UBIV_g0USAln2EM_5RJJ-41" value="" style="sketch=0;points=[[0,0,0],[0.25,0,0],[0.5,0,0],[0.75,0,0],[1,0,0],[0,1,0],[0.25,1,0],[0.5,1,0],[0.75,1,0],[1,1,0],[0,0.25,0],[0,0.5,0],[0,0.75,0],[1,0.25,0],[1,0.5,0],[1,0.75,0]];outlineConnect=0;fontColor=#232F3E;fillColor=#8C4FFF;strokeColor=#ffffff;dashed=0;verticalLabelPosition=bottom;verticalAlign=top;align=center;html=1;fontSize=12;fontStyle=0;aspect=fixed;shape=mxgraph.aws4.resourceIcon;resIcon=mxgraph.aws4.elastic_load_balancing;" parent="UBIV_g0USAln2EM_5RJJ-3" vertex="1">
          <mxGeometry x="680" y="830" width="80" height="80" as="geometry" />
        </mxCell>
        <mxCell id="UBIV_g0USAln2EM_5RJJ-73" value="Security group" style="fillColor=none;strokeColor=#DD3522;verticalAlign=top;fontStyle=0;fontColor=#DD3522;whiteSpace=wrap;html=1;" parent="UBIV_g0USAln2EM_5RJJ-3" vertex="1">
          <mxGeometry x="660" y="805" width="120" height="125" as="geometry" />
        </mxCell>
        <mxCell id="UBIV_g0USAln2EM_5RJJ-74" value="Security group" style="fillColor=none;strokeColor=#DD3522;verticalAlign=top;fontStyle=0;fontColor=#DD3522;whiteSpace=wrap;html=1;" parent="UBIV_g0USAln2EM_5RJJ-3" vertex="1">
          <mxGeometry x="400" y="100" width="630" height="210" as="geometry" />
        </mxCell>
        <mxCell id="fk12IcjHYHWXNJZwA5c7-2" value="" style="endArrow=classic;startArrow=classic;html=1;rounded=0;exitX=0.175;exitY=0.81;exitDx=0;exitDy=0;exitPerimeter=0;" edge="1" parent="UBIV_g0USAln2EM_5RJJ-3">
          <mxGeometry width="50" height="50" relative="1" as="geometry">
            <mxPoint x="524.25" y="270.0999999999999" as="sourcePoint" />
            <mxPoint x="930" y="270" as="targetPoint" />
            <Array as="points">
              <mxPoint x="720" y="800" />
            </Array>
          </mxGeometry>
        </mxCell>
        <mxCell id="UBIV_g0USAln2EM_5RJJ-15" style="edgeStyle=orthogonalEdgeStyle;rounded=0;orthogonalLoop=1;jettySize=auto;html=1;exitX=0.5;exitY=0;exitDx=0;exitDy=0;" parent="1" source="UBIV_g0USAln2EM_5RJJ-13" target="UBIV_g0USAln2EM_5RJJ-11" edge="1">
          <mxGeometry relative="1" as="geometry">
            <Array as="points">
              <mxPoint x="845" y="1410" />
            </Array>
          </mxGeometry>
        </mxCell>
        <mxCell id="UBIV_g0USAln2EM_5RJJ-13" value="Internet/On-premises server" style="fillColor=#f5f5f5;strokeColor=#666666;dashed=1;verticalAlign=top;fontStyle=0;fontColor=#333333;whiteSpace=wrap;html=1;" parent="1" vertex="1">
          <mxGeometry x="40" y="1410" width="1600" height="130" as="geometry" />
        </mxCell>
        <mxCell id="UBIV_g0USAln2EM_5RJJ-44" value="" style="edgeStyle=orthogonalEdgeStyle;rounded=0;orthogonalLoop=1;jettySize=auto;html=1;" parent="1" source="UBIV_g0USAln2EM_5RJJ-11" target="UBIV_g0USAln2EM_5RJJ-41" edge="1">
          <mxGeometry relative="1" as="geometry" />
        </mxCell>
        <mxCell id="UBIV_g0USAln2EM_5RJJ-63" style="edgeStyle=orthogonalEdgeStyle;rounded=0;orthogonalLoop=1;jettySize=auto;html=1;entryX=0.75;entryY=0.944;entryDx=0;entryDy=0;entryPerimeter=0;" parent="1" source="UBIV_g0USAln2EM_5RJJ-49" target="UBIV_g0USAln2EM_5RJJ-4" edge="1">
          <mxGeometry relative="1" as="geometry" />
        </mxCell>
        <mxCell id="UBIV_g0USAln2EM_5RJJ-65" style="edgeStyle=orthogonalEdgeStyle;rounded=0;orthogonalLoop=1;jettySize=auto;html=1;entryX=0.25;entryY=0.958;entryDx=0;entryDy=0;entryPerimeter=0;" parent="1" source="UBIV_g0USAln2EM_5RJJ-53" target="UBIV_g0USAln2EM_5RJJ-4" edge="1">
          <mxGeometry relative="1" as="geometry" />
        </mxCell>
        <mxCell id="UBIV_g0USAln2EM_5RJJ-66" style="edgeStyle=orthogonalEdgeStyle;rounded=0;orthogonalLoop=1;jettySize=auto;html=1;entryX=0.25;entryY=0.944;entryDx=0;entryDy=0;entryPerimeter=0;" parent="1" source="UBIV_g0USAln2EM_5RJJ-31" target="UBIV_g0USAln2EM_5RJJ-5" edge="1">
          <mxGeometry relative="1" as="geometry" />
        </mxCell>
        <mxCell id="UBIV_g0USAln2EM_5RJJ-68" style="edgeStyle=orthogonalEdgeStyle;rounded=0;orthogonalLoop=1;jettySize=auto;html=1;entryX=0.75;entryY=0.944;entryDx=0;entryDy=0;entryPerimeter=0;" parent="1" source="UBIV_g0USAln2EM_5RJJ-55" target="UBIV_g0USAln2EM_5RJJ-5" edge="1">
          <mxGeometry relative="1" as="geometry" />
        </mxCell>
        <mxCell id="UBIV_g0USAln2EM_5RJJ-77" value="" style="endArrow=classic;startArrow=classic;html=1;rounded=0;exitX=0.19;exitY=0.238;exitDx=0;exitDy=0;exitPerimeter=0;" parent="1" source="UBIV_g0USAln2EM_5RJJ-74" edge="1">
          <mxGeometry width="50" height="50" relative="1" as="geometry">
            <mxPoint x="810" y="530" as="sourcePoint" />
            <mxPoint x="790" y="60" as="targetPoint" />
            <Array as="points">
              <mxPoint x="620" y="120" />
            </Array>
          </mxGeometry>
        </mxCell>
        <mxCell id="UBIV_g0USAln2EM_5RJJ-78" value="" style="endArrow=classic;startArrow=classic;html=1;rounded=0;entryX=0.873;entryY=0.238;entryDx=0;entryDy=0;entryPerimeter=0;exitX=1;exitY=0.5;exitDx=0;exitDy=0;exitPerimeter=0;" parent="1" source="UBIV_g0USAln2EM_5RJJ-75" target="UBIV_g0USAln2EM_5RJJ-74" edge="1">
          <mxGeometry width="50" height="50" relative="1" as="geometry">
            <mxPoint x="880" y="130" as="sourcePoint" />
            <mxPoint x="930" y="80" as="targetPoint" />
            <Array as="points">
              <mxPoint x="1050" y="120" />
            </Array>
          </mxGeometry>
        </mxCell>
      </root>
    </mxGraphModel>
  </diagram>
</mxfile>
